<?xml version="1.0" standalone="no"?>
<!DOCTYPE svg PUBLIC "-//W3C//DTD SVG 20010904//EN"
 "http://www.w3.org/TR/2001/REC-SVG-20010904/DTD/svg10.dtd">
<svg version="1.0" xmlns="http://www.w3.org/2000/svg"
 width="400.000000pt" height="400.000000pt" viewBox="0 0 400.000000 400.000000"
 preserveAspectRatio="xMidYMid meet">
<metadata>
Created by potrace 1.11, written by Peter Selinger 2001-2013
</metadata>
<g transform="translate(0.000000,400.000000) scale(0.100000,-0.100000)"
fill="#000000" stroke="none">
<path d="M1932 3983 c-23 -5 -122 -55 -152 -77 -8 -6 -24 -16 -35 -22 -20 -11
-76 -42 -150 -84 -22 -12 -46 -27 -52 -32 -8 -6 -107 -11 -250 -12 l-238 -2
-50 -28 c-27 -15 -55 -36 -63 -47 -7 -10 -18 -24 -25 -31 -20 -21 -48 -68 -41
-68 4 0 0 -8 -8 -17 -8 -10 -30 -45 -47 -78 -110 -204 -104 -196 -214 -258
-56 -32 -124 -71 -152 -87 -27 -16 -65 -37 -83 -46 -43 -22 -95 -75 -118 -121
-17 -33 -20 -70 -24 -283 l-5 -245 -91 -155 c-125 -213 -129 -223 -128 -302 0
-66 1 -68 110 -255 l109 -188 5 -245 c6 -271 8 -283 74 -350 27 -28 224 -147
374 -227 23 -13 61 -52 62 -65 0 -8 167 -295 192 -330 22 -32 93 -76 135 -85
15 -3 125 -6 243 -7 174 -1 221 -4 245 -17 17 -9 86 -49 155 -89 223 -129 260
-142 345 -119 22 6 123 59 225 117 l185 107 215 2 c118 1 229 4 246 5 42 5
116 50 146 90 28 38 208 347 208 359 0 9 85 63 228 145 161 92 165 94 190 123
13 14 33 46 45 71 19 41 21 65 22 271 l1 225 114 200 114 199 0 70 c0 76 -9
95 -172 375 l-56 95 -1 210 c-1 116 -5 228 -9 251 -14 79 -65 127 -246 233
-217 126 -216 125 -240 169 -11 20 -33 58 -48 84 -15 25 -51 88 -80 140 -29
51 -61 102 -70 113 -21 25 -92 80 -92 71 0 -4 -10 -1 -22 6 -16 9 -85 13 -238
15 -118 1 -224 2 -236 2 -11 1 -88 40 -170 87 -82 48 -170 97 -196 111 -47 23
-138 37 -186 26z m511 -1245 c72 -50 147 -102 164 -115 l33 -24 -20 -21 c-11
-12 -20 -25 -20 -30 0 -5 -21 -39 -46 -78 l-46 -69 -42 26 c-122 77 -306 205
-306 212 0 5 4 11 8 13 5 2 35 42 68 90 32 49 62 88 67 88 4 0 67 -41 140 -92z
m-215 -354 c86 -59 163 -112 169 -118 10 -9 6 -22 -20 -61 -67 -101 -553 -823
-609 -905 l-59 -85 -122 -28 c-67 -15 -133 -30 -146 -33 -14 -3 -28 -7 -32
-10 -8 -5 -17 29 -24 101 -3 28 -10 84 -16 126 l-10 76 106 154 c58 85 108
161 112 169 4 8 9 17 13 20 5 5 44 61 314 465 56 83 103 152 107 155 3 3 15
22 28 43 12 20 25 37 27 37 3 0 75 -48 162 -106z"/>
</g>
</svg>
